<svg viewBox="0 0 45 24.58" xmlns="http://www.w3.org/2000/svg"><g fill="#fff"><path d="m13 16.76v2.74h-12.28v-2.74h4.85v-13.31a4.7 4.7 0 0 1 -1 .87 10.06 10.06 0 0 1 -1.45.85 12.52 12.52 0 0 1 -1.66.67 5.08 5.08 0 0 1 -1.46.27v-2.87a4.06 4.06 0 0 0 1.67-.42 13.73 13.73 0 0 0 1.76-1 13.44 13.44 0 0 0 1.44-1.09 3.7 3.7 0 0 0 .7-.73h3.07v16.76z"/><path d="m23.39 8.77a8.48 8.48 0 0 1 3.12.57 7.17 7.17 0 0 1 2.49 1.59 7.4 7.4 0 0 1 1.67 2.45 7.93 7.93 0 0 1 .62 3.14 7.88 7.88 0 0 1 -.67 3.3 7.53 7.53 0 0 1 -1.82 2.54 8.36 8.36 0 0 1 -2.71 1.64 9.55 9.55 0 0 1 -3.35.58 9 9 0 0 1 -4.68-1.23 8.09 8.09 0 0 1 -3.14-3.27l1.88-1.64a7.3 7.3 0 0 0 2.54 2.56 6.51 6.51 0 0 0 3.43 1 5.93 5.93 0 0 0 2.17-.39 5.21 5.21 0 0 0 1.74-1.1 4.83 4.83 0 0 0 1.15-1.69 5.68 5.68 0 0 0 .41-2.18 5.25 5.25 0 0 0 -.41-2.08 5.16 5.16 0 0 0 -1.11-1.64 4.87 4.87 0 0 0 -1.66-1.06 5.57 5.57 0 0 0 -2-.38 6.05 6.05 0 0 0 -2.75.65 5.66 5.66 0 0 0 -2.1 1.85h-2.74c0-.12.08-.41.17-.87s.2-1 .34-1.71.28-1.42.44-2.24l.48-2.49c.39-2 .82-4.15 1.3-6.59h11.8v2.69h-9.58l-1.42 7.71a5.32 5.32 0 0 1 1.88-1.24 6.64 6.64 0 0 1 2.51-.47z"/><path d="m45 6.15v2.45h-4v4.4h-2.76v-4.4h-4v-2.45h4v-4.37h2.76v4.37z"/></g></svg>