<svg viewBox="0 0 45.8 39.9" xmlns="http://www.w3.org/2000/svg"><g fill="#fff" stroke="#fff" stroke-miterlimit="10" stroke-width=".7"><path d="m33.65 10.75h-6.8a.68.68 0 0 1 -.7-.7.37.37 0 0 1 .1-.3v-4.5a4.1 4.1 0 1 1 8.2 0v4.8a.77.77 0 0 1 -.8.7zm-6-1.5h5.35v-4a2.67 2.67 0 0 0 -2.6-2.7 2.61 2.61 0 0 0 -2.6 2.7l-.1 4z"/><path d="m26.85 37.65h-25.8a.76.76 0 0 1 -.5-.2.76.76 0 0 1 -.2-.5v-33.2a2.69 2.69 0 0 1 2.7-2.7h27.2a.68.68 0 0 1 .7.7.68.68 0 0 1 -.7.7 2.61 2.61 0 0 0 -2.6 2.7v31.85a.77.77 0 0 1 -.8.65zm-25.1-1.4h24.4v-31.1a4.27 4.27 0 0 1 1-2.7h-24.1a1.24 1.24 0 0 0 -1.2 1.3z"/><path d="m21.65 17.35h-15.8a.7.7 0 1 1 0-1.4h15.8a.7.7 0 0 1 0 1.4z"/><path d="m21.65 10.65h-15.8a.7.7 0 1 1 0-1.4h15.8a.7.7 0 1 1 0 1.4z"/><path d="m21.65 24.15h-15.8a.7.7 0 1 1 0-1.4h15.8a.7.7 0 0 1 0 1.4z"/><path d="m21.65 30.75h-15.8a.7.7 0 1 1 0-1.4h15.8a.7.7 0 0 1 0 1.4z"/><path d="m41.75 39.55a.68.68 0 0 1 -.6-.4l-2.8-5.6a.37.37 0 0 1 -.1-.3v-29.8a3.38 3.38 0 0 1 3.6-3.1 3.38 3.38 0 0 1 3.6 3.1v29.8a.37.37 0 0 1 -.1.3l-2.8 5.6a1 1 0 0 1 -.8.4zm-2.1-6.4 2.1 4.2 2.1-4.2v-29.6c0-.9-.9-1.6-2.1-1.6s-2.1.7-2.1 1.6z"/><path d="m38.95 5.35h5.7v1.5h-5.7z"/><path d="m38.95 32.55h5.7v1.5h-5.7z"/></g></svg>