<svg viewBox="0 0 45.7 45.7" xmlns="http://www.w3.org/2000/svg"><g fill="#fba919" stroke="#fba919" stroke-miterlimit="10" stroke-width=".7"><path d="m42.2.35-26.62 1.13a.55.55 0 0 0 -.53.56v.42h-3.68a3.17 3.17 0 0 0 -3.17 3.17v.82h-6a1.85 1.85 0 0 0 -1.85 1.86v1.35a1.86 1.86 0 0 0 1.85 1.86h6v.82a3.18 3.18 0 0 0 3.17 3.17h3.68v.42a.55.55 0 0 0 .53.56l4.91.21a6.11 6.11 0 0 0 5.56 5.1l1.12 10.6h-2.79a2.23 2.23 0 0 0 -2.23 2.23v10.16a.56.56 0 0 0 .56.56h22.08a.56.56 0 0 0 .56-.56v-10.16a2.23 2.23 0 0 0 -2.23-2.23h-3.12l-1.46-14.94 3.68.16a3.13 3.13 0 0 0 3.13-3.13v-11a3.13 3.13 0 0 0 -3.15-3.14zm-40 10a.73.73 0 0 1 -.73-.73v-1.31a.73.73 0 0 1 .73-.73h6v2.81zm9.17 4a2 2 0 0 1 -2-2v-6.72a2 2 0 0 1 2-2h3.68v2.82h-3.05a.56.56 0 0 0 -.56.56.57.57 0 0 0 .56.57h3.1v2.81h-3.1a.56.56 0 0 0 -.56.56.57.57 0 0 0 .56.57h3.1v2.86zm10.26 2.37 3.9.16.4 3.76a5 5 0 0 1 -4.3-3.89zm1.64 27.47v-6.51h21v6.54zm21-9.59v1.92h-21v-1.89a1.11 1.11 0 0 1 1.11-1.11h18.74a1.11 1.11 0 0 1 1.1 1.11zm-5.38-2.2h-10.59l-1.64-15.4 10.74.45zm5.33-17.91a2 2 0 0 1 -2 2l-26.08-1.1v-12.81l26.08-1.11a2 2 0 0 1 2 2z"/><path d="m29.9 6a2.67 2.67 0 1 0 2.66 2.7 2.68 2.68 0 0 0 -2.66-2.7zm0 4.21a1.54 1.54 0 1 1 1.54-1.51 1.54 1.54 0 0 1 -1.54 1.54z"/><path d="m37.43 6a2.67 2.67 0 1 0 2.67 2.7 2.67 2.67 0 0 0 -2.67-2.7zm0 4.21a1.54 1.54 0 1 1 1.57-1.51 1.54 1.54 0 0 1 -1.57 1.54z"/></g></svg>