<svg viewBox="0 0 39.17 45.5" xmlns="http://www.w3.org/2000/svg"><g fill="#fff" stroke="#fff" stroke-miterlimit="10" stroke-width=".5"><path d="m36.9 22.45a14.8 14.8 0 1 0 -23.78 2.55 4.23 4.23 0 0 0 -1.48.92l-2.92 2.75a3.35 3.35 0 0 0 -1.26-.27 3.26 3.26 0 0 0 -2.27.92l-3.97 3.85a3.25 3.25 0 0 0 -.05 4.58l6.39 6.53a3.19 3.19 0 0 0 2.28 1 3.24 3.24 0 0 0 2.26-.92l3.93-3.85a3.25 3.25 0 0 0 .8-3.51 4.17 4.17 0 0 1 2.4-.78h6.06a7.06 7.06 0 0 0 3.42-.89 6.73 6.73 0 0 0 1-.67l3.29-2.66a3 3 0 0 0 .41-.33l.07-.06 4.76-5.07a2.27 2.27 0 0 0 .61-1.55 2.33 2.33 0 0 0 -.71-1.66 3.68 3.68 0 0 0 -1.24-.88zm-12.81-20.2a12.81 12.81 0 0 1 12.8 12.8 12.67 12.67 0 0 1 -2.3 7.3 3.64 3.64 0 0 0 -1.81 1.07l-2.24 2.39-1.82 1.1a2.83 2.83 0 0 0 -1.89-.73h-5.09-.07l-1-.68a4.31 4.31 0 0 0 -2.5-.79h-2.48a12.79 12.79 0 0 1 8.4-22.44zm12.76 22.83-4.7 5-.42.33-3.3 2.68a4.87 4.87 0 0 1 -.69.46 5 5 0 0 1 -2.45.64h-6.06a6.23 6.23 0 0 0 -3.61 1.18l-2.55-2.61a1 1 0 0 0 -1.41 0 1 1 0 0 0 0 1.42l3 3.11a1.25 1.25 0 0 1 0 1.76l-3.92 3.85a1.23 1.23 0 0 1 -1.75 0l-6.39-6.54a1.26 1.26 0 0 1 -.35-.89 1.19 1.19 0 0 1 .37-.87l3.93-3.85a1.25 1.25 0 0 1 1.76 0l1.47 1.51a1 1 0 0 0 1.42 0 1 1 0 0 0 0-1.41l-.92-.94 2.72-2.58a2.27 2.27 0 0 1 1.6-.64h3.59a2.36 2.36 0 0 1 1.34.42l1 .69a2.12 2.12 0 0 0 1.22.38h5.09a.89.89 0 0 1 .87.87.87.87 0 0 1 -.87.87h-6.27a1 1 0 0 0 0 2h6.26a2.88 2.88 0 0 0 2.87-2.87 2.45 2.45 0 0 0 0-.38l2-1.22.1-.07.06-.05 2.34-2.5a1.82 1.82 0 0 1 1-.54 1.87 1.87 0 0 1 1.6.44.3.3 0 0 1 .09.22.27.27 0 0 1 -.04.13z"/><path d="m22.18 20.42a1 1 0 0 0 .73.33h.09a1 1 0 0 0 .75-.41l6.71-9.4a1 1 0 0 0 -1.63-1.16l-6 8.4-3.51-3.8a1 1 0 1 0 -1.47 1.36z"/></g></svg>