<svg viewBox="0 0 45.7 45.7" xmlns="http://www.w3.org/2000/svg"><g fill="#fff" stroke="#fff" stroke-miterlimit="10"><path d="m45.35 22.85a2.09 2.09 0 0 0 -.64-1.47l-3.71-3.38 1.56-4.84a2.18 2.18 0 0 0 -.14-1.57 1.91 1.91 0 0 0 -1.28-.93l-4.99-1.11-1.07-4.94a1.81 1.81 0 0 0 -.93-1.28 1.77 1.77 0 0 0 -1.57-.14l-4.84 1.56-3.42-3.75a2 2 0 0 0 -1.47-.65 2.09 2.09 0 0 0 -1.47.65l-3.38 3.75-4.88-1.56a2.18 2.18 0 0 0 -1.57.14 1.91 1.91 0 0 0 -.93 1.28l-1.07 4.94-4.94 1.07a1.81 1.81 0 0 0 -1.28.93 1.79 1.79 0 0 0 -.14 1.57l1.56 4.88-3.75 3.38a2 2 0 0 0 -.64 1.47 2.09 2.09 0 0 0 .64 1.47l3.76 3.42-1.57 4.84a2.18 2.18 0 0 0 .14 1.57 1.91 1.91 0 0 0 1.28.93l4.94 1.07 1.07 4.94a1.81 1.81 0 0 0 .93 1.28 1.77 1.77 0 0 0 1.57.14l4.88-1.51 3.42 3.76a2 2 0 0 0 1.47.64 2.09 2.09 0 0 0 1.47-.64l3.38-3.76 4.84 1.56a2.18 2.18 0 0 0 1.57-.14 1.91 1.91 0 0 0 .93-1.28l1.07-4.94 4.94-1.07a1.81 1.81 0 0 0 1.28-.93 2 2 0 0 0 .14-1.57l-1.51-4.89 3.76-3.42a2.09 2.09 0 0 0 .59-1.47zm-5.72 3.42a1.91 1.91 0 0 0 -.54 2.06l1.56 4.84-4.94 1.08a2 2 0 0 0 -1.51 1.51l-1.13 4.89-4.84-1.56a2 2 0 0 0 -2.05.54l-3.43 3.76-3.42-3.76a2.13 2.13 0 0 0 -1.47-.63 2.51 2.51 0 0 0 -.59.1l-4.74 1.56-1.08-4.94a2 2 0 0 0 -1.51-1.52l-4.94-1.08 1.56-4.84a2 2 0 0 0 -.56-2.06l-3.74-3.42 3.74-3.42a1.91 1.91 0 0 0 .54-2.06l-1.54-4.74 4.94-1.08a2 2 0 0 0 1.51-1.5l1.08-4.94 4.84 1.56a2 2 0 0 0 2.06-.54l3.42-3.76 3.42 3.76a1.91 1.91 0 0 0 2.06.54l4.84-1.56 1.08 4.94a2 2 0 0 0 1.51 1.51l4.85 1.08-1.61 4.83a2 2 0 0 0 .54 2.06l3.76 3.42z" stroke-width=".7"/><path d="m31.12 18.35-10.37 10.37a1 1 0 0 1 -1.37 0l-4.89-4.84a1 1 0 0 1 -.3-.69 1 1 0 0 1 1-1 1 1 0 0 1 .69.3l3.45 3.51a1 1 0 0 0 1.37 0l9-9a1 1 0 0 1 1.37 0 .91.91 0 0 1 .05 1.35z"/></g></svg>