<svg viewBox="0 0 45.7 45.7" xmlns="http://www.w3.org/2000/svg"><g fill="#fba919" stroke="#fba919" stroke-miterlimit="10" stroke-width=".7"><path d="m.91 39.2h1.57v5.59a.56.56 0 0 0 .56.56h6.68a.57.57 0 0 0 .57-.56v-5.59h3.17v5.59a.56.56 0 0 0 .56.56h6.68a.56.56 0 0 0 .56-.56v-5.59h3.18v5.59a.56.56 0 0 0 .56.56h6.68a.56.56 0 0 0 .56-.56v-5.59h3.17v5.59a.57.57 0 0 0 .57.56h6.68a.56.56 0 0 0 .56-.56v-5.59h1.57a.57.57 0 0 0 .56-.57v-6.63a.56.56 0 0 0 -.56-.56h-1.57v-18.31h1.57a.56.56 0 0 0 .56-.57v-6.68a.56.56 0 0 0 -.56-.56h-1.57v-4.41a.56.56 0 0 0 -.56-.56h-6.66a.57.57 0 0 0 -.57.56v4.41h-3.19v-4.41a.56.56 0 0 0 -.56-.56h-6.68a.56.56 0 0 0 -.56.56v4.41h-3.18v-4.41a.56.56 0 0 0 -.56-.56h-6.7a.56.56 0 0 0 -.56.56v4.41h-3.15v-4.41a.57.57 0 0 0 -.57-.56h-6.72a.56.56 0 0 0 -.56.56v4.41h-1.53a.56.56 0 0 0 -.56.56v6.68a.56.56 0 0 0 .56.57h1.57v18.26h-1.57a.56.56 0 0 0 -.56.61v6.68a.57.57 0 0 0 .56.52zm8.25 5h-5.56v-5h5.56zm11 0h-5.58v-5h5.56zm11 0h-5.6v-5h5.56zm11 0h-5.62v-5h5.56zm0-12.83h-5.62v-18.24h5.56zm-28.7-18.24v18.26h-3.17v-18.26zm1.12 0h5.56v18.26h-5.56zm6.68 0h3.18v18.26h-3.18zm4.3 0h5.56v18.26h-5.56zm6.68 0h3.17v18.26h-3.17zm4.3-11.66h5.56v3.85h-5.56zm-11 0h5.56v3.85h-5.54zm-11 0h5.56v3.85h-5.52zm-11 0h5.62v3.85h-5.56zm-2.13 5h42.81v5.53h-42.75zm2.19 6.66h5.56v18.26h-5.56zm-2.13 19.38h42.75v5.56h-42.75z"/><path d="m7.25 8.66h-1.74a.56.56 0 0 0 -.51.56.57.57 0 0 0 .56.57h1.69a.57.57 0 0 0 .56-.57.56.56 0 0 0 -.56-.56z"/><path d="m7.25 34.73h-1.74a.56.56 0 0 0 0 1.12h1.74a.56.56 0 1 0 0-1.12z"/><path d="m18.23 8.66h-1.74a.56.56 0 0 0 -.56.56.57.57 0 0 0 .56.57h1.74a.57.57 0 0 0 .56-.57.56.56 0 0 0 -.56-.56z"/><path d="m18.23 34.73h-1.74a.56.56 0 0 0 0 1.12h1.74a.56.56 0 1 0 0-1.12z"/><path d="m29.21 8.66h-1.74a.56.56 0 0 0 -.56.56.57.57 0 0 0 .56.57h1.74a.57.57 0 0 0 .56-.57.56.56 0 0 0 -.56-.56z"/><path d="m29.21 34.73h-1.74a.56.56 0 0 0 0 1.12h1.74a.56.56 0 1 0 0-1.12z"/><path d="m40.19 8.66h-1.74a.56.56 0 0 0 -.56.56.57.57 0 0 0 .56.57h1.74a.57.57 0 0 0 .56-.57.56.56 0 0 0 -.56-.56z"/><path d="m40.19 34.73h-1.74a.56.56 0 0 0 0 1.12h1.74a.56.56 0 0 0 0-1.12z"/></g></svg>