<svg viewBox="0 0 45.7 46.7" xmlns="http://www.w3.org/2000/svg"><g fill="#fba919" stroke="#fba919" stroke-miterlimit="10" stroke-width=".7"><path d="m10.79 11.41a2.22 2.22 0 0 0 0 3.13 2.22 2.22 0 0 0 3.12 0 2.21 2.21 0 0 0 -3.12-3.13zm2.31 2.31a1.06 1.06 0 1 1 0-1.49 1.05 1.05 0 0 1 0 1.49z"/><path d="m1.59 41.78a4.52 4.52 0 0 0 4.54 4.57 4.5 4.5 0 0 0 3.26-1.35l14.36-14.89 14.3 14.73a4.17 4.17 0 0 0 3 1.3 4.24 4.24 0 0 0 2.94-7.3l-14.77-14.4 2.71-2.8a.58.58 0 0 0 0-.81l3.66-3.66a2.1 2.1 0 0 1 2-.3c2.7 1 5 7.1 5.71 9.38a.57.57 0 0 0 .53.41.58.58 0 0 0 .54-.37c3-8.22-3.6-15-3.67-15l-3.44-3.45a1.5 1.5 0 0 0 -2.12.09.34.34 0 0 1 -.46.05l-1.83-1.82a.39.39 0 0 1 -.09-.24.29.29 0 0 1 .1-.22 1.55 1.55 0 0 0 .48-1.1 1.33 1.33 0 0 0 -.4-1l-3-3a.59.59 0 0 0 -.82 0l-6.19 6.2a.58.58 0 0 0 0 .81l3 3a1.48 1.48 0 0 0 2.07-.07.36.36 0 0 1 .27-.12.25.25 0 0 1 .19.06l1.85 1.86a.25.25 0 0 1 .07.19.41.41 0 0 1 -.13.26l-3.17 3.21a.57.57 0 0 0 -.77 0l-2.9 2.8-5.22-5.07a9.68 9.68 0 0 0 -14.99-11.25.59.59 0 0 0 -.2.41.55.55 0 0 0 .17.44l6 6-1.26 1.24-5-5a.59.59 0 0 0 -.44-.17.63.63 0 0 0 -.42.21 7.84 7.84 0 0 0 .47 10.39l-.12.12a.56.56 0 0 0 0 .81 9.72 9.72 0 0 0 10.6 2.07l5 5.12-15 14.43a4.51 4.51 0 0 0 -1.41 3.23zm29.5-28.17a1.58 1.58 0 0 0 .46-1 1.42 1.42 0 0 0 -.41-1.06l-1.85-1.88a1.4 1.4 0 0 0 -1.05-.4 1.51 1.51 0 0 0 -1 .46.34.34 0 0 1 -.46 0l-2.64-2.56 5.38-5.38 2.61 2.61a.24.24 0 0 1 .06.19.37.37 0 0 1 -.13.28 1.47 1.47 0 0 0 -.06 2.13l1.87 1.8a1.48 1.48 0 0 0 2.13-.09.34.34 0 0 1 .46-.05l3.43 3.42c.06.06 5.23 5.34 3.89 12.07-1-2.65-3.06-7.38-5.82-8.36a3.24 3.24 0 0 0 -3 .46.27.27 0 0 0 -.08.07l-3.76 3.68-3.23-3.2zm-4.39 3.62 4 4-2.32 2.4-4.15-4zm-24.11-10.34 4.5 4.5-3.76 3.76a6.69 6.69 0 0 1 -.74-8.26zm10.49 10.84a.52.52 0 0 0 -.24.05 8.57 8.57 0 0 1 -9.21-1.31l6.74-6.74a.56.56 0 0 0 0-.81l-5.93-5.92a8.54 8.54 0 0 1 12.56 10.64.55.55 0 0 0 .12.65l26.13 25.38a3.09 3.09 0 1 1 -4.38 4.33l-25.37-26.1a.59.59 0 0 0 -.42-.17zm5.64 7.21 4.22 4.34-14.37 14.89a3.4 3.4 0 0 1 -2.41 1 3.52 3.52 0 0 1 -2.43-1 3.39 3.39 0 0 1 0-4.83z"/></g></svg>