<svg viewBox="0 0 45.7 45.75" xmlns="http://www.w3.org/2000/svg"><g fill="#fba919" stroke="#fba919" stroke-miterlimit="10" stroke-width=".7"><path d="m2.78 27.57h7.09v3h-.42a.57.57 0 0 0 -.57.53l-.56 10.8a3.5 3.5 0 1 0 7 0l-.56-10.74a.55.55 0 0 0 -.56-.53h-.42v-3h7.06a2.43 2.43 0 0 0 2.05-1.12 2.39 2.39 0 0 0 .17-2.3l-9.06-22.35a2.47 2.47 0 0 0 -2.28-1.46 2.46 2.46 0 0 0 -2.29 1.5l-8.87 22.24a2.44 2.44 0 0 0 2.22 3.43zm9 16.71a2.37 2.37 0 0 1 -2.37-2.35l.59-10.21h3.69l.51 10.18a2.39 2.39 0 0 1 -2.38 2.38zm-.78-13.68v-9.13a.83.83 0 0 1 1.66 0v9.13zm-9.39-6 8.85-22.26a1.34 1.34 0 0 1 1.25-.81 1.33 1.33 0 0 1 1.29.78l9 22.28a1.29 1.29 0 0 1 -.09 1.25 1.27 1.27 0 0 1 -1.1.6h-7.03v-5a2 2 0 0 0 -3.91 0v5h-7.09a1.27 1.27 0 0 1 -1.09-.6 1.28 1.28 0 0 1 -.09-1.26z"/><path d="m41.77 9.2a.56.56 0 0 0 .56-.56v-1.64a.56.56 0 1 0 -1.12 0v1.64a.56.56 0 0 0 .56.56z"/><path d="m24.93.91v24.31a2.28 2.28 0 0 0 2.28 2.27h2.06a2.54 2.54 0 0 1 2.53 2.51v12a3.34 3.34 0 0 0 6.68 0v-12a2.54 2.54 0 0 1 2.52-2.51h2a2.28 2.28 0 0 0 2.28-2.27v-24.31a.56.56 0 0 0 -.56-.56h-19.22a.56.56 0 0 0 -.57.56zm18.14 25.46h-2.07a3.66 3.66 0 0 0 -3.64 3.63v12a2.22 2.22 0 0 1 -4.43 0v-12a3.67 3.67 0 0 0 -3.66-3.65h-2.06a1.16 1.16 0 0 1 -1.15-1.15v-6.4h18.16v6.4a1.15 1.15 0 0 1 -1.15 1.17zm-15.16-24.89v5.52a.56.56 0 0 0 .56.56.57.57 0 0 0 .53-.56v-5.52h2.19v9.52a.57.57 0 0 0 .57.56.56.56 0 0 0 .56-.56v-9.52h2.2v3.88a.56.56 0 0 0 1.12 0v-3.88h2.2v5.52a.57.57 0 0 0 1.16 0v-5.52h2.2v3.15a.56.56 0 1 0 1.12 0v-3.15h1.89v16.21h-18.15v-16.21z"/></g></svg>