<svg enable-background="new 0 0 207.5 43.1" viewBox="0 0 207.5 43.1" xmlns="http://www.w3.org/2000/svg"><path d="m42.5 19.8.7-11.6-19.2-8.2-10.4 9.7.5 3.2-8-1.6-6.1 6.1 1.9 19.8h51l1.6-14.1z" fill="#fba919"/><g fill="none" stroke="#21262d" stroke-miterlimit="10" stroke-width="1.7"><path d="m7.4 42.3h51.1l1.5-14.2-15-4.1.6 6.2 2.1.3 1-17.2-19.2-8.2-10.3 9.7 3.2 21h2.2l.1-16.9-13.1-2.5-6.1 6.1z"/><path d="m29.5 5.1.9 37.2"/><path d="m11.6 16.4v25.9"/></g><g fill="#fba919"><path d="m81.7 21.6c0 1.3-.2 2.4-.5 3.3-.4.9-.9 1.7-1.5 2.2-.6.6-1.4 1-2.2 1.3s-1.8.4-2.7.4-1.8-.1-2.5-.3c-.8-.2-1.5-.5-2.3-.9l1-2.5c.2.1.4.2.7.3s.5.2.8.3.7.2 1 .2c.4.1.8.1 1.2.1 1.1 0 1.9-.3 2.6-.8.6-.6 1-1.4 1.2-2.5h-5.8v-2.6h5.7c-.2-1.1-.5-1.9-1.2-2.4s-1.5-.8-2.5-.8c-.8 0-1.5.1-2.2.3s-1.2.4-1.5.6l-.9-2.4c.8-.4 1.5-.7 2.3-.9s1.6-.3 2.4-.3c1 0 1.9.1 2.7.4s1.6.7 2.2 1.3 1.1 1.3 1.5 2.3.5 2.2.5 3.4z"/><path d="m94.1 14.7v2.6h-4.2v11.2h-3.1v-11.2h-4.2v-2.7h11.5z"/><path d="m103.8 28.5c-.2-.5-.3-1-.5-1.5s-.4-1-.5-1.5h-5.4c-.2.5-.4 1-.5 1.5-.2.5-.3 1-.5 1.5h-3.2c.5-1.5 1-2.9 1.5-4.1.5-1.3.9-2.5 1.4-3.6s.9-2.2 1.3-3.2.9-2 1.4-3h3c.5 1 .9 1.9 1.3 3 .4 1 .9 2.1 1.3 3.2s.9 2.3 1.4 3.6 1 2.6 1.5 4.1zm-3.8-10.7c-.1.2-.2.5-.3.8s-.3.7-.5 1.2-.4 1-.6 1.5-.4 1.1-.6 1.7h4c-.2-.6-.4-1.2-.6-1.7s-.4-1-.6-1.5-.3-.9-.5-1.2c-.1-.3-.2-.6-.3-.8z"/><path d="m115.2 17.3c0 .9-.1 1.8-.2 2.7s-.2 1.8-.3 2.6c-.2.8-.4 1.6-.7 2.4-.3.7-.7 1.4-1.2 1.9-.5.6-1.1 1-1.9 1.3-.7.3-1.7.5-2.7.6l-.3-2.7c1-.1 1.7-.3 2.2-.7s.9-1 1.2-1.8c.3-1 .6-2.2.7-3.8.1-1.5.2-3.3.2-5.2h9.5v13.9h-3.1v-11.2z"/><path d="m138.2 21.6c0 1.2-.2 2.2-.5 3.1-.4.9-.8 1.7-1.4 2.3s-1.3 1.1-2.2 1.4-1.8.5-2.7.5-1.8-.2-2.7-.5-1.6-.8-2.2-1.4-1.1-1.4-1.5-2.3-.5-1.9-.5-3.1.2-2.2.6-3.1.9-1.7 1.5-2.3 1.4-1.1 2.2-1.4 1.7-.5 2.6-.5 1.8.2 2.7.5 1.6.8 2.2 1.4 1.1 1.4 1.5 2.3c.2.9.4 1.9.4 3.1zm-10.6 0c0 .7.1 1.3.2 1.8s.4 1 .7 1.4.7.7 1.1.9c.5.2 1 .3 1.6.3s1.1-.1 1.5-.3c.5-.2.8-.5 1.2-.9.3-.4.6-.9.7-1.4.2-.5.2-1.2.2-1.8 0-.7-.1-1.3-.2-1.8-.2-.6-.4-1-.7-1.4s-.7-.7-1.2-.9-1-.3-1.5-.3c-.6 0-1.1.1-1.6.3s-.8.5-1.1.9-.6.9-.7 1.4-.2 1.1-.2 1.8z"/><path d="m149.1 14.7h3.1v13.9h-3.1v-5.9h-5.2v5.9h-3.1v-13.9h3.1v5.3h5.2z"/></g><g fill="#494949"><path d="m163.4 28.5c-.4-.8-.8-1.6-1.3-2.3s-1-1.5-1.6-2c-.2.2-.4.5-.7.9s-.6.8-.9 1.2-.6.8-.8 1.3c-.2.4-.4.8-.6 1h-3.6c.6-1.1 1.3-2.2 2.1-3.4s1.7-2.4 2.7-3.7l-4.5-6.8h3.8l2.6 4 2.7-4h3.6l-4.5 6.7c1.2 1.5 2.2 2.8 2.9 4.1s1.4 2.3 1.8 3.1h-3.7z"/><path d="m179 28.5c-.2-.5-.3-1-.5-1.5s-.4-1-.5-1.5h-5.4c-.2.5-.4 1-.5 1.5-.2.5-.3 1-.5 1.5h-3.2c.5-1.5 1-2.9 1.5-4.1.5-1.3.9-2.5 1.4-3.6s.9-2.2 1.3-3.2.9-2 1.4-3h3c.5 1 .9 1.9 1.3 3 .4 1 .9 2.1 1.3 3.2s.9 2.3 1.4 3.6 1 2.6 1.5 4.1zm-3.8-10.7c-.1.2-.2.5-.3.8s-.3.7-.5 1.2-.4 1-.6 1.5-.4 1.1-.6 1.7h4c-.2-.6-.4-1.2-.6-1.7s-.4-1-.6-1.5-.3-.9-.5-1.2c-.1-.3-.2-.6-.3-.8z"/><path d="m191.4 24.5c-.4.9-.8 1.6-1.2 2.2s-.9 1-1.3 1.3c-.5.3-.9.5-1.4.7-.5.1-.9.2-1.4.2s-.9 0-1.4-.1-.9-.2-1.4-.4l.6-2.5c.7.2 1.3.4 2 .4.4 0 .8-.1 1.2-.3s.7-.6 1.1-1.2c-.5-.9-1.1-1.7-1.6-2.6s-1-1.8-1.4-2.7-.9-1.7-1.2-2.5c-.4-.8-.7-1.5-1-2.2h3.5c.2.5.5 1.1.7 1.7.3.6.5 1.2.8 1.8s.6 1.3.9 1.9.6 1.2.9 1.9c.4-1.2.8-2.4 1.2-3.6s.8-2.4 1.1-3.7h3.3c-.3 1-.7 2-1 2.9s-.7 1.7-1 2.5-.6 1.6-1 2.3-.7 1.3-1 2z"/><path d="m203 28.8c-2.3 0-4-.6-5.2-1.9s-1.8-3-1.8-5.3c0-1.1.2-2.2.5-3.1.4-.9.9-1.7 1.5-2.3s1.4-1.1 2.2-1.4c.9-.3 1.8-.5 2.8-.5.6 0 1.1 0 1.6.1s.9.2 1.3.3.7.2.9.3.4.2.5.3l-.9 2.5c-.4-.2-.9-.4-1.5-.6s-1.2-.2-1.9-.2c-.5 0-1 .1-1.4.2s-.9.4-1.2.8c-.4.4-.6.8-.9 1.4-.2.6-.3 1.2-.3 2 0 .6.1 1.2.2 1.8s.4 1 .7 1.4.7.7 1.2 1c.5.2 1.1.3 1.8.3.5 0 .9 0 1.2-.1.4-.1.7-.1 1-.2s.5-.2.7-.2c.2-.1.4-.2.6-.3l.9 2.5c-.4.3-1.1.5-1.9.7s-1.5.5-2.6.5z"/></g></svg>