<svg height="122pt" preserveAspectRatio="xMidYMid meet" viewBox="0 0 122 122" width="122pt" xmlns="http://www.w3.org/2000/svg"><path d="m473 865c-91-86-110-109-105-127 5-20 3-21-34-15-118 20-102 25-177-51l-68-69 15-149c9-82 19-175 22-206l7-58h527 526l16 153c9 83 14 154 12 156-3 3-81 27-184 55l-45 13 3 115c3 114 3 116-20 124-12 4-51 20-85 35-58 27-293 129-296 129-1 0-52-47-114-105zm453-80c30-13 31-15 27-67-2-29-6-72-9-95-5-41-6-42-36-36l-30 6 7-79c4-43 9-80 10-82s18-5 37-8c33-6 35-4 42 26 3 18 6 43 6 55v22l100-25c115-29 106-10 87-177l-12-100-267-3-267-2v192c0 106-4 264-7 350l-7 157 144-60c79-33 158-66 175-74zm-343-327 5-238h-169-169v241c0 200 2 240 14 236 7-3 35-9 61-12 25-4 48-13 51-19 2-6 15-84 28-173s27-167 31-173c3-5 22-10 41-10h34v189 189l-32 7c-18 4-41 9-50 11-36 10-18 45 60 119l77 73 6-102c4-55 9-208 12-338zm-372-13 4-220-25-3-25-3-17 188-17 188 36 37c20 21 38 37 39 35 1-1 3-101 5-222zm258 61-1-151-18 108c-35 211-35 205-6 200l26-5zm471-8c0-49-5-47-13 5-3 20-2 37 4 37 5 0 9-19 9-42z" transform="matrix(.1 0 0 -.1 0 122)"/></svg>